<?xml version="1.0" encoding="UTF-8"?>
<svg id="Capa_1" data-name="Capa 1" xmlns="http://www.w3.org/2000/svg" viewBox="0 0 200 200">
  <rect x="101.3" y="43.96" width="19.12" height="19.12" transform="translate(-5.38 94.06) rotate(-45)"/>
  <polygon points="132.55 130.48 132.05 130.97 115.65 147.38 115.65 113.58 132.55 130.48"/>
  <polygon points="112.85 137.12 112.85 159.75 101.54 148.43 112.85 137.12"/>
  <polygon points="83.13 120.1 66.47 136.76 66.47 120.1 83.13 120.1"/>
  <polygon points="134.5 68.63 134.5 68.73 100.68 102.55 100.58 102.55 100.58 68.63 134.5 68.63"/>
  <polygon points="112.85 94.37 112.85 128.28 79.04 128.28 79.04 128.18 112.85 94.37"/>
  <polygon points="97.56 69.76 97.4 86.66 89.24 94.37 80.64 102.48 80.72 94.37 80.8 85.58 97.56 69.76"/>
</svg>